<svg width="48" height="48" viewBox="0 0 48 48" fill="none" xmlns="http://www.w3.org/2000/svg">
<path fill-rule="evenodd" clip-rule="evenodd" d="M15.4625 41.6653C14.4484 42.1946 13.2215 42.1014 12.2989 41.4249C11.3764 40.7484 10.9187 39.6063 11.1187 38.4799L12.7374 29.2021L5.92254 22.6714C5.08954 21.877 4.78426 20.6762 5.13673 19.5804C5.48919 18.4846 6.43731 17.687 7.57722 17.5272L17.0392 16.1747L21.3109 7.65311C21.8174 6.63112 22.8595 5.98457 24.0001 5.98457C25.1407 5.98457 26.1827 6.63112 26.6892 7.65311L30.961 16.1747L40.4229 17.5272C41.5628 17.687 42.5109 18.4846 42.8634 19.5804C43.2159 20.6762 42.9106 21.877 42.0776 22.6714L35.2628 29.2021L36.8814 38.4819C37.0814 39.6083 36.6237 40.7504 35.7012 41.4269C34.7787 42.1034 33.5518 42.1966 32.5376 41.6673L24.0001 37.2554L15.4625 41.6653Z" stroke="#195AB4" stroke-width="1.5" stroke-linecap="round" stroke-linejoin="round"/>
</svg>
