<svg width="49" height="48" viewBox="0 0 49 48" fill="none" xmlns="http://www.w3.org/2000/svg">
<path d="M24.5 10C19.314 15.536 19.314 24.464 24.5 30C29.686 24.464 29.686 15.536 24.5 10Z" stroke="#195AB4" stroke-width="1.5" stroke-linecap="round" stroke-linejoin="round"/>
<path d="M24.5 10C30.036 10 34.5 14.464 34.5 20C34.5 25.536 30.036 30 24.5 30" stroke="#195AB4" stroke-width="1.5" stroke-linecap="round" stroke-linejoin="round"/>
<path d="M24.5 30C18.964 30 14.5 25.536 14.5 20C14.5 14.464 18.964 10 24.5 10" stroke="#195AB4" stroke-width="1.5" stroke-linecap="round" stroke-linejoin="round"/>
<path d="M14.5 20H34.5" stroke="#195AB4" stroke-width="1.5" stroke-linecap="round" stroke-linejoin="round"/>
<path d="M36.056 44H12.944C10.49 44 8.5 42.01 8.5 39.556V8.444C8.5 5.99 10.49 4 12.944 4H36.056C38.51 4 40.5 5.99 40.5 8.444V39.556C40.5 42.01 38.51 44 36.056 44Z" stroke="#195AB4" stroke-width="1.5" stroke-linecap="round" stroke-linejoin="round"/>
<path d="M30.5 37H18.5" stroke="#195AB4" stroke-width="1.5" stroke-linecap="round" stroke-linejoin="round"/>
</svg>
