<svg width="48" height="48" viewBox="0 0 48 48" fill="none" xmlns="http://www.w3.org/2000/svg">
<path d="M25.75 38H10C7.79 38 6 36.21 6 34V10C6 7.79 7.79 6 10 6H28C30.21 6 32 7.79 32 10" stroke="#195AB4" stroke-width="1.5" stroke-linecap="round" stroke-linejoin="round"/>
<path d="M32 10V16" stroke="#195AB4" stroke-width="1.5" stroke-linecap="round" stroke-linejoin="round"/>
<path d="M18.998 31.666C18.814 31.666 18.664 31.816 18.666 32C18.666 32.184 18.816 32.334 19 32.334C19.184 32.334 19.334 32.184 19.334 32C19.334 31.816 19.184 31.666 18.998 31.666" stroke="#195AB4" stroke-width="1.5" stroke-linecap="round" stroke-linejoin="round"/>
<path fill-rule="evenodd" clip-rule="evenodd" d="M29.75 16H38C40.21 16 42 17.79 42 20V38C42 40.21 40.21 42 38 42H29.75C27.54 42 25.75 40.21 25.75 38V20C25.75 17.79 27.54 16 29.75 16Z" stroke="#195AB4" stroke-width="1.5" stroke-linecap="round" stroke-linejoin="round"/>
<path d="M32.12 37.5H35.62" stroke="#195AB4" stroke-width="1.5" stroke-linecap="round" stroke-linejoin="round"/>
</svg>
