<svg width="42" height="42" viewBox="0 0 42 42" fill="none" xmlns="http://www.w3.org/2000/svg">
<path d="M21.572 41H3.286C2.022 41 1 39.978 1 38.714V27.286C1 26.022 2.022 25 3.286 25H21.572C22.834 25 23.858 26.022 23.858 27.286V38.714C23.858 39.978 22.834 41 21.572 41Z" stroke="#195AB4" stroke-width="1.5" stroke-linecap="round" stroke-linejoin="round"/>
<path d="M38.7141 17H20.4281C19.1661 17 18.1421 15.978 18.1421 14.714V3.286C18.1421 2.022 19.1661 1 20.4281 1H38.7141C39.9781 1 41.0001 2.022 41.0001 3.286V14.714C41.0001 15.978 39.9781 17 38.7141 17Z" stroke="#195AB4" stroke-width="1.5" stroke-linecap="round" stroke-linejoin="round"/>
<path d="M22.7139 6.5V11.5" stroke="#195AB4" stroke-width="1.5" stroke-linecap="round" stroke-linejoin="round"/>
<path d="M36.4282 6.5V11.5" stroke="#195AB4" stroke-width="1.5" stroke-linecap="round" stroke-linejoin="round"/>
<path d="M2 14L5 17L8 14" stroke="#195AB4" stroke-width="1.5" stroke-linecap="round" stroke-linejoin="round"/>
<path d="M5 17V13C5 9.686 7.686 7 11 7" stroke="#195AB4" stroke-width="1.5" stroke-linecap="round" stroke-linejoin="round"/>
<path d="M40 28L37 25L34 28" stroke="#195AB4" stroke-width="1.5" stroke-linecap="round" stroke-linejoin="round"/>
<path d="M37 25V29C37 32.314 34.314 35 31 35" stroke="#195AB4" stroke-width="1.5" stroke-linecap="round" stroke-linejoin="round"/>
<path d="M19.0706 29.9292C19.1097 29.9682 19.1097 30.0316 19.0706 30.0706C19.0316 30.1097 18.9682 30.1097 18.9292 30.0706C18.8901 30.0316 18.8901 29.9682 18.9292 29.9292C18.9682 29.8901 19.0316 29.8901 19.0706 29.9292Z" stroke="#195AB4" stroke-width="1.5" stroke-linecap="round" stroke-linejoin="round"/>
<path d="M5.92852 35.9292C5.96758 35.9682 5.96758 36.0316 5.92852 36.0706C5.88947 36.1097 5.82615 36.1097 5.7871 36.0706C5.74805 36.0316 5.74805 35.9682 5.7871 35.9292C5.82615 35.8901 5.88947 35.8901 5.92852 35.9292Z" stroke="#195AB4" stroke-width="1.5" stroke-linecap="round" stroke-linejoin="round"/>
<path d="M14.196 31.2322C15.1723 32.2085 15.1723 33.7915 14.196 34.7678C13.2197 35.7441 11.6368 35.7441 10.6605 34.7678C9.68415 33.7915 9.68415 32.2086 10.6605 31.2322C11.6368 30.2559 13.2197 30.2559 14.196 31.2322Z" stroke="#195AB4" stroke-width="1.5" stroke-linecap="round" stroke-linejoin="round"/>
<path d="M31.34 7.23223C32.3163 8.20854 32.3163 9.79145 31.34 10.7678C30.3637 11.7441 28.7808 11.7441 27.8045 10.7678C26.8282 9.79146 26.8282 8.20855 27.8045 7.23223C28.7808 6.25592 30.3637 6.25592 31.34 7.23223" stroke="#195AB4" stroke-width="1.5" stroke-linecap="round" stroke-linejoin="round"/>
</svg>