<svg width="20" height="19" viewBox="0 0 20 19" fill="none" xmlns="http://www.w3.org/2000/svg">
<path fill-rule="evenodd" clip-rule="evenodd" d="M5.70853 1H14.3987C16.7946 1 18.7361 2.94151 18.7361 5.33745V14.0276C18.7361 16.4235 16.7946 18.365 14.3987 18.365H5.70853C3.3126 18.365 1.37109 16.4235 1.37109 14.0276V5.33745C1.37109 2.94151 3.3126 1 5.70853 1Z" stroke="white" stroke-width="1.1" stroke-miterlimit="10" stroke-linecap="round" stroke-linejoin="round"/>
<path d="M13.8436 4.85601C13.8409 4.28253 14.3056 3.81426 14.8802 3.81426C15.454 3.81426 15.9202 4.278 15.9202 4.8526C15.9202 5.42538 15.4562 5.89 14.8836 5.89094M13.8436 4.85601C13.8445 5.42731 14.3083 5.89363 14.8836 5.89094M13.8436 4.85601C13.8436 4.85658 13.8436 4.85716 13.8436 4.85774L14.3936 4.85428H13.8436C13.8436 4.85485 13.8436 4.85543 13.8436 4.85601ZM14.8836 5.89094C14.8842 5.89094 14.8848 5.89094 14.8854 5.89093L14.8819 5.34095V5.89095C14.8825 5.89095 14.8831 5.89094 14.8836 5.89094Z" stroke="white" stroke-width="1.1" stroke-miterlimit="10" stroke-linecap="round" stroke-linejoin="round"/>
<path d="M10.053 12.937C11.851 12.937 13.3086 11.4794 13.3086 9.68141C13.3086 7.88338 11.851 6.42578 10.053 6.42578C8.25495 6.42578 6.79736 7.88338 6.79736 9.68141C6.79736 11.4794 8.25495 12.937 10.053 12.937Z" stroke="white" stroke-width="1.1" stroke-miterlimit="10" stroke-linecap="round" stroke-linejoin="round"/>
</svg>
