<svg width="32" height="32" viewBox="0 0 32 32" fill="none" xmlns="http://www.w3.org/2000/svg">
<path d="M9.43735 29.0773C13.048 29.0773 15.976 26.1493 15.976 22.5387C15.976 18.928 13.0493 16 9.43735 16C5.82535 16 2.89868 18.928 2.89868 22.5387" stroke="white" stroke-linecap="round" stroke-linejoin="round"/>
<path d="M9.44402 29.0839C8.46002 29.0839 7.52802 28.8666 6.69069 28.4786L2.66669 29.3332L3.50802 25.3012C3.11735 24.4612 2.89869 23.5252 2.89869 22.5386" stroke="white" stroke-linecap="round" stroke-linejoin="round"/>
<path d="M8.74267 16.0373C8.26533 14.9427 8 13.7493 8 12.4973C8 7.14133 12.7973 2.84399 18.6667 2.84399C24.536 2.84399 29.3333 7.14133 29.3333 12.4973C29.3333 15.6627 27.6507 18.4493 25.068 20.2067C25.0693 21.2147 25.0667 22.5733 25.0667 24L20.8813 21.9387C20.1653 22.076 19.4253 22.1507 18.6667 22.1507C17.724 22.1507 16.8093 22.0387 15.9373 21.8293" stroke="white" stroke-linecap="round" stroke-linejoin="round"/>
</svg>
