<svg width="19" height="19" viewBox="0 0 19 19" fill="none" xmlns="http://www.w3.org/2000/svg">
<path d="M4.98558 1H13.6706C16.0665 1 18.0081 2.94151 18.0081 5.33745V14.0276C18.0081 16.4235 16.0665 18.365 13.6706 18.365H4.98049C2.58456 18.365 0.643066 16.4235 0.643066 14.0276V5.34252C0.644762 2.94489 2.58796 1 4.98558 1Z" stroke="white" stroke-width="1.1" stroke-miterlimit="10" stroke-linecap="round" stroke-linejoin="round"/>
<path d="M9.32617 14.0225V10.9839C9.32617 9.78506 10.2978 8.81348 11.4966 8.81348C12.6954 8.81348 13.667 9.78506 13.667 10.9839V14.0225" stroke="white" stroke-width="1.1" stroke-miterlimit="10" stroke-linecap="round" stroke-linejoin="round"/>
<path d="M4.98535 8.81299V14.022" stroke="white" stroke-width="1.1" stroke-miterlimit="10" stroke-linecap="round" stroke-linejoin="round"/>
<path d="M4.98364 5.66602C4.86325 5.66602 4.7666 5.76437 4.7666 5.88306C4.7666 6.00345 4.86325 6.10011 4.98364 6.10011C5.10403 6.10011 5.20068 6.00345 5.20068 5.88306C5.20238 5.76437 5.10403 5.66602 4.98364 5.66602Z" fill="white" stroke="white" stroke-width="1.1" stroke-miterlimit="10" stroke-linecap="round" stroke-linejoin="round"/>
</svg>
