<svg width="19" height="16" viewBox="0 0 19 16" fill="none" xmlns="http://www.w3.org/2000/svg">
<path d="M18.0099 3.11534C17.8116 2.24379 17.2232 1.55537 16.4737 1.31967C15.1206 0.897459 9.68946 0.897461 9.68946 0.897461C9.68946 0.897461 4.26174 0.897459 2.90523 1.31967C2.15915 1.55197 1.57076 2.2404 1.36898 3.11534C1.00781 4.69737 1.00781 8.00048 1.00781 8.00048C1.00781 8.00048 1.00781 11.3036 1.36898 12.8856C1.56737 13.7571 2.15576 14.4456 2.90523 14.6813C4.26174 15.1035 9.68946 15.1035 9.68946 15.1035C9.68946 15.1035 15.1206 15.1035 16.4737 14.6813C17.2198 14.449 17.8082 13.7605 18.0099 12.8856C18.3711 11.3036 18.3711 8.00048 18.3711 8.00048C18.3711 8.00048 18.3711 4.69737 18.0099 3.11534Z" stroke="white" stroke-width="1.1" stroke-miterlimit="10" stroke-linecap="round" stroke-linejoin="round"/>
<path d="M7.95508 10.6072L12.4672 8.00098L7.95508 5.39648V10.6072Z" stroke="white" stroke-width="1.1" stroke-miterlimit="10" stroke-linecap="round" stroke-linejoin="round"/>
</svg>
