<svg width="20" height="20" viewBox="0 0 20 20" fill="none" xmlns="http://www.w3.org/2000/svg">
<g clip-path="url(#clip0_4886_970)">
<path d="M15.1698 4.80163C13.7981 3.42913 11.974 2.67246 10.0306 2.67163C6.02479 2.67163 2.76563 5.92913 2.76479 9.9333C2.76313 11.2075 3.09729 12.46 3.73396 13.5641L2.70312 17.3275L6.55479 16.3175C7.62063 16.8975 8.81396 17.2016 10.0273 17.2016H10.0306C14.0348 17.2016 17.294 13.9433 17.2956 9.93913C17.2965 7.99913 16.5415 6.17496 15.1698 4.80163Z" stroke="white" stroke-width="1.2" stroke-linecap="round" stroke-linejoin="round"/>
<path d="M10.9126 11.2999L11.2509 10.9641C11.5618 10.6558 12.0534 10.6166 12.4118 10.8683C12.7584 11.1116 13.0718 11.3299 13.3634 11.5333C13.8268 11.8549 13.8826 12.5149 13.4834 12.9133L13.1843 13.2124" stroke="white" stroke-linecap="round" stroke-linejoin="round"/>
<path d="M6.7876 6.81583L7.08676 6.51666C7.4851 6.11833 8.1451 6.17416 8.46676 6.63666C8.66926 6.92833 8.8876 7.24166 9.13176 7.58833C9.38343 7.94666 9.3451 8.43833 9.03593 8.74916L8.7001 9.08749" stroke="white" stroke-linecap="round" stroke-linejoin="round"/>
<path d="M13.1841 13.2126C11.9499 14.4409 9.87578 13.3976 8.23828 11.7593" stroke="white" stroke-linecap="round" stroke-linejoin="round"/>
<path d="M8.24005 11.7618C6.60255 10.1234 5.55922 8.05008 6.78756 6.81592" stroke="white" stroke-linecap="round" stroke-linejoin="round"/>
<path d="M8.7002 9.0874C8.96603 9.50657 9.30686 9.92157 9.69186 10.3066L9.69353 10.3082C10.0785 10.6932 10.4935 11.0341 10.9127 11.2999" stroke="white" stroke-linecap="round" stroke-linejoin="round"/>
</g>
<defs>
<clipPath id="clip0_4886_970">
<rect width="20" height="20" fill="white"/>
</clipPath>
</defs>
</svg>
