<svg width="49" height="48" viewBox="0 0 49 48" fill="none" xmlns="http://www.w3.org/2000/svg">
<path d="M34.564 24.934C34.6 24.97 34.6 25.028 34.564 25.064C34.528 25.1 34.47 25.1 34.434 25.064C34.398 25.028 34.398 24.97 34.434 24.934C34.47 24.898 34.53 24.9 34.564 24.934" stroke="#195AB4" stroke-width="1.5" stroke-linecap="round" stroke-linejoin="round"/>
<path d="M29.824 14.956C30.246 14.054 30.5 13.06 30.5 12C30.5 8.134 27.366 5 23.5 5C19.634 5 16.5 8.134 16.5 12C16.5 13.246 16.852 14.4 17.424 15.412" stroke="#195AB4" stroke-width="1.5" stroke-linecap="round" stroke-linejoin="round"/>
<path d="M5.076 21C4.138 21.546 3.5 22.552 3.5 23.716C3.5 25.458 4.912 26.87 6.654 26.87H8.5" stroke="#195AB4" stroke-width="1.5" stroke-linecap="round" stroke-linejoin="round"/>
<path fill-rule="evenodd" clip-rule="evenodd" d="M37.5 13V18.108C38.936 19.404 40.076 21.02 40.752 22.87H42.5C43.604 22.87 44.5 23.766 44.5 24.87V31C44.5 32.104 43.604 33 42.5 33H39.878C38.828 34.816 37.312 36.328 35.5 37.382V41C35.5 42.104 34.604 43 33.5 43H29.5C28.396 43 27.5 42.104 27.5 41V39H20.5V40.736C20.5 41.84 19.604 42.736 18.5 42.736H14.5C13.396 42.736 12.5 41.84 12.5 40.736V35.926C10.05 33.728 8.5 30.55 8.5 27C8.5 20.372 13.872 15 20.5 15H29.552C30.41 15 31.242 14.718 31.926 14.202C32.924 13.45 34.156 13 35.5 13H37.5V13Z" stroke="#195AB4" stroke-width="1.5" stroke-linecap="round" stroke-linejoin="round"/>
</svg>
