<svg width="17" height="19" viewBox="0 0 17 19" fill="none" xmlns="http://www.w3.org/2000/svg">
<path d="M11.8709 1C11.8709 1.24571 11.9344 4.99277 16 5.23848C16 8.73984 16 5.23848 16 8.12556C15.6824 8.12556 13.332 8.00271 11.8709 6.71274V12.364C11.9344 14.944 10.4098 17.4011 7.67828 17.8925C6.91598 18.0154 6.21721 18.0768 5.07377 17.8311C-1.65984 15.8654 0.563523 6.28275 7.29713 7.32701C7.29713 10.4598 7.29713 7.32701 7.29713 10.4598C4.50205 10.0912 3.6127 12.3026 4.31147 13.8997C5.01025 15.374 7.7418 15.6811 8.69467 13.5926C8.82172 13.1626 8.88525 12.7326 8.88525 12.2412V1H11.8709Z" stroke="white"/>
</svg>
